<svg width="25" height="24" viewBox="0 0 25 24" fill="none" xmlns="http://www.w3.org/2000/svg">
<path d="M9.22949 21C9.54015 21 9.79199 20.7482 9.79199 20.4375C9.79199 20.1268 9.54015 19.875 9.22949 19.875C8.91883 19.875 8.66699 20.1268 8.66699 20.4375C8.66699 20.7482 8.91883 21 9.22949 21Z" fill="#22262A" stroke="#22262A" stroke-width="2" stroke-miterlimit="10" stroke-linecap="round" stroke-linejoin="round"/>
<path d="M17.1045 21C17.4152 21 17.667 20.7482 17.667 20.4375C17.667 20.1268 17.4152 19.875 17.1045 19.875C16.7938 19.875 16.542 20.1268 16.542 20.4375C16.542 20.7482 16.7938 21 17.1045 21Z" fill="#22262A" stroke="#22262A" stroke-width="2" stroke-miterlimit="10" stroke-linecap="round" stroke-linejoin="round"/>
<path d="M3.04199 3H5.29199L7.54199 16.5H18.792L21.042 6.375H6.41699" stroke="#22262A" stroke-width="2" stroke-linecap="round" stroke-linejoin="round"/>
</svg>
