<svg width="9" height="17" viewBox="0 0 9 17" fill="none" xmlns="http://www.w3.org/2000/svg">
<path d="M0.333788 8.89243H2.09581V16.1529C2.09581 16.2217 2.12314 16.2877 2.17177 16.3363C2.2204 16.385 2.28635 16.4123 2.35512 16.4123H5.34355C5.41232 16.4123 5.47827 16.385 5.5269 16.3363C5.57553 16.2877 5.60286 16.2217 5.60286 16.1529V8.92646H7.6295C7.69305 8.92636 7.75436 8.90291 7.80177 8.86057C7.84918 8.81823 7.8794 8.75994 7.88669 8.69678L8.19488 6.02357C8.19907 5.98726 8.19556 5.95047 8.18455 5.91562C8.17354 5.88077 8.1553 5.84864 8.13102 5.82133C8.10674 5.79403 8.07696 5.77216 8.04365 5.75717C8.01033 5.74218 7.97422 5.7344 7.93769 5.73434H5.59966V4.05959C5.59966 3.55451 5.87174 3.29825 6.40736 3.29825H7.93344C8.00222 3.29825 8.06817 3.27091 8.1168 3.22226C8.16543 3.1736 8.19275 3.10761 8.19275 3.0388V0.585691C8.19333 0.517243 8.16684 0.451343 8.11907 0.402348C8.07129 0.353352 8.00609 0.325232 7.93769 0.324112L5.83241 0.324112H5.7357C4.76625 0.327535 3.83052 0.680516 3.10011 1.31833C2.75544 1.6197 2.49099 2.00202 2.33054 2.43094C2.17008 2.85986 2.11864 3.32195 2.18083 3.77568V5.7354H0.330593C0.26182 5.7354 0.195867 5.76274 0.147237 5.81139C0.0986075 5.86005 0.0712891 5.92604 0.0712891 5.99486V8.63298C0.0712865 8.66732 0.0780937 8.70132 0.0913241 8.73301C0.104555 8.7647 0.123947 8.79344 0.148364 8.81758C0.172782 8.84171 0.201742 8.86076 0.233572 8.87361C0.265402 8.88646 0.299468 8.89285 0.333788 8.89243Z" fill="white"/>
</svg>
