<svg width="18" height="13" viewBox="0 0 18 13" fill="none" xmlns="http://www.w3.org/2000/svg">
<path d="M17.3627 1.53895C16.7128 1.79428 16.0254 1.96403 15.3218 2.04296C16.0636 1.64691 16.6184 1.01962 16.8808 0.279969C16.1871 0.650397 15.4281 0.911475 14.6368 1.05195C14.1512 0.584038 13.5203 0.25855 12.8264 0.117836C12.1325 -0.0228783 11.4076 0.0276939 10.7461 0.262973C10.0845 0.498253 9.51695 0.907345 9.11719 1.43702C8.71743 1.9667 8.504 2.59244 8.50466 3.23283C8.50207 3.47728 8.5298 3.72123 8.58733 3.96014C7.17787 3.89784 5.79888 3.56843 4.54051 2.99345C3.28213 2.41847 2.17271 1.61087 1.28477 0.623425C0.828755 1.32511 0.687516 2.15707 0.889905 2.94935C1.09229 3.74164 1.62304 4.43446 2.37372 4.8863C1.81304 4.8729 1.26417 4.73833 0.773367 4.49393V4.52902C0.774126 5.26513 1.05632 5.97857 1.57252 6.54942C2.08872 7.12028 2.80746 7.51375 3.60794 7.66371C3.30471 7.73611 2.99214 7.77187 2.67844 7.77004C2.4533 7.77372 2.22839 7.75554 2.00759 7.71581C2.23624 8.34844 2.67696 8.90178 3.26914 9.29973C3.86132 9.69769 4.57588 9.92072 5.31459 9.93816C4.06194 10.8193 2.51776 11.2977 0.928087 11.2971C0.644673 11.2989 0.361424 11.2843 0.0800781 11.2535C1.69952 12.1929 3.58651 12.69 5.51301 12.6847C6.83964 12.6931 8.15489 12.464 9.38236 12.0108C10.6098 11.5577 11.7251 10.8895 12.6633 10.045C13.6015 9.20052 14.344 8.19663 14.8476 7.09163C15.3512 5.98663 15.6059 4.80256 15.597 3.60818C15.597 3.46676 15.597 3.33065 15.584 3.19561C16.2839 2.74544 16.8867 2.18402 17.3627 1.53895Z" fill="white"/>
</svg>
