<?xml version="1.0" encoding="iso-8859-1"?>
<!-- Generator: Adobe Illustrator 18.0.0, SVG Export Plug-In . SVG Version: 6.00 Build 0)  -->
<svg version="1.1" id="Capa_1" xmlns="http://www.w3.org/2000/svg" xmlns:xlink="http://www.w3.org/1999/xlink" x="0px" y="0px"
	 viewBox="0 0 480 480" style="enable-background:new 0 0 480 480;" xml:space="preserve">
<g>
	<path d="M358.522,98.918c-3.49-7.63-10.503-20.578-22.487-33.488C319.147,47.236,288.776,25.548,240,25.548
		s-79.146,21.688-96.034,39.882c-11.984,12.91-18.997,25.858-22.487,33.488H0v310.581c0,24.787,20.166,44.953,44.954,44.953h390.093
		c24.787,0,44.953-20.166,44.953-44.953V98.918H358.522z M340.489,338.92v-26.016h22.675v26.016H340.489z M338.248,292.904
		c-9.792,0-17.759,7.967-17.759,17.76v30.496c0,9.793,7.967,17.76,17.759,17.76h3.578V380h20v-21.08h3.579
		c9.792,0,17.759-7.967,17.759-17.76v-30.496c0-9.793-7.967-17.76-17.759-17.76h-3.579V258.32h42.678v120.42
		c0,8.141-6.622,14.763-14.762,14.763H90.259c-8.14,0-14.762-6.622-14.762-14.763V258.32h42.677v34.584h-3.578
		c-9.792,0-17.759,7.967-17.759,17.76v30.496c0,9.793,7.967,17.76,17.759,17.76h3.578V380h20v-21.08h3.579
		c9.792,0,17.759-7.967,17.759-17.76v-30.496c0-9.793-7.967-17.76-17.759-17.76h-3.579V258.32h203.652v34.584H338.248z
		 M116.837,338.92v-26.016h22.675v26.016H116.837z M138.174,238.32V118.918h203.652V238.32H138.174z M158.624,79.036
		C179.25,56.814,206.629,45.548,240,45.548c33.055,0,60.244,11.065,80.815,32.889c6.817,7.233,11.773,14.536,15.2,20.481H143.956
		C147.273,93.166,152.041,86.129,158.624,79.036z M20,118.918h98.174V238.32h-73.22C31.194,238.32,20,227.126,20,213.367V118.918z
		 M435.047,434.452H44.954c-13.76,0-24.954-11.194-24.954-24.953V250.736c7.145,4.787,15.728,7.584,24.954,7.584h10.543v120.42
		c0,19.168,15.594,34.763,34.762,34.763h299.483c19.168,0,34.762-15.595,34.762-34.763V258.32h10.543
		c9.226,0,17.809-2.797,24.953-7.583v158.762C460,423.258,448.806,434.452,435.047,434.452z M435.047,238.32h-73.221V118.918H460
		v94.449C460,227.126,448.806,238.32,435.047,238.32z"/>
	<path d="M177.116,366.482h125.769v-81.141H177.116V366.482z M197.116,305.342h85.769v41.141h-85.769V305.342z"/>
</g>
<g>
</g>
<g>
</g>
<g>
</g>
<g>
</g>
<g>
</g>
<g>
</g>
<g>
</g>
<g>
</g>
<g>
</g>
<g>
</g>
<g>
</g>
<g>
</g>
<g>
</g>
<g>
</g>
<g>
</g>
</svg>
