<?xml version="1.0" encoding="iso-8859-1"?>
<!-- Generator: Adobe Illustrator 19.0.0, SVG Export Plug-In . SVG Version: 6.00 Build 0)  -->
<svg version="1.1" id="Layer_1" xmlns="http://www.w3.org/2000/svg" xmlns:xlink="http://www.w3.org/1999/xlink" x="0px" y="0px"
	 viewBox="0 0 502.492 502.492" style="enable-background:new 0 0 502.492 502.492;" xml:space="preserve">
<g>
	<g>
		<path d="M502.435,141.289c-0.002-0.016-0.004-0.031-0.006-0.047c-0.026-0.225-0.06-0.448-0.102-0.671
			c-0.014-0.076-0.028-0.151-0.044-0.226c-0.044-0.199-0.095-0.397-0.152-0.592c-0.014-0.047-0.025-0.095-0.039-0.142
			c-0.999-3.219-3.831-5.873-8.005-5.873h-0.002H91.201h-0.002c-0.003,0-0.006,0-0.009,0c-0.056,0-0.108,0.006-0.163,0.007
			c-0.084,0.002-0.167,0-0.252,0.005c-0.067,0.003-0.133,0.009-0.2,0.014c-0.398,0.026-0.782,0.077-1.153,0.151
			c-3.298,0.51-7.983,1.584-13.791,3.506c-10.477,3.467-20.946,8.587-30.747,15.704C9.828,178.581-7.304,221.831,2.94,285.689
			c4.747,29.61,45.537,34.257,56.129,6.109c7.523-19.993,15.441-45.687,23.736-77.656v146.22c0,4.636,3.758,8.393,8.393,8.393
			h402.885c4.636,0,8.393-3.758,8.393-8.393V142.604C502.496,142.165,502.482,141.726,502.435,141.289z M458.531,150.525
			l-132.314,66.157v-15.796c0-4.636-3.758-8.393-8.393-8.393h-0.002h-50.359h-0.002c-4.636,0-8.393,3.758-8.393,8.393v15.795
			l-132.312-66.156H458.531z M275.855,230.289c0-0.009,0.002-0.017,0.002-0.026V209.28h33.572v50.361h-33.574V230.289z
			 M43.358,285.885c-4.472,11.885-21.796,9.911-23.843-2.855c-9.258-57.704,5.374-94.64,35.232-116.321
			c8.045-5.842,16.677-10.123,25.321-13.069C66.88,212.61,54.604,255.998,43.358,285.885z M99.592,351.968V155.712l159.475,79.738
			v32.584c0,4.636,3.758,8.393,8.393,8.393h50.361c4.636,0,8.393-3.758,8.393-8.393v-32.582l159.475-79.738v196.254H99.592z"/>
	</g>
</g>
<g>
</g>
<g>
</g>
<g>
</g>
<g>
</g>
<g>
</g>
<g>
</g>
<g>
</g>
<g>
</g>
<g>
</g>
<g>
</g>
<g>
</g>
<g>
</g>
<g>
</g>
<g>
</g>
<g>
</g>
</svg>
