<?xml version="1.0" encoding="iso-8859-1"?>
<!-- Generator: Adobe Illustrator 18.0.0, SVG Export Plug-In . SVG Version: 6.00 Build 0)  -->
<!DOCTYPE svg PUBLIC "-//W3C//DTD SVG 1.1//EN" "http://www.w3.org/Graphics/SVG/1.1/DTD/svg11.dtd">
<svg version="1.1" id="Capa_1" xmlns="http://www.w3.org/2000/svg" xmlns:xlink="http://www.w3.org/1999/xlink" x="0px" y="0px"
	 viewBox="0 0 480 480" style="enable-background:new 0 0 480 480;" xml:space="preserve">
<path d="M404.264,245.701c-0.18-32.554-1.972-88.199-19.846-138.304c-11.378-31.896-27.779-57.1-48.748-74.913
	C310.297,10.93,278.109,0,240,0s-70.297,10.93-95.67,32.484c-20.968,17.813-37.37,43.018-48.748,74.913
	c-17.875,50.104-19.666,105.75-19.846,138.304h-36.02v179.865c0,14.302,4.656,27.452,13.109,37.031C59.832,470.536,73.01,480,96,480
	h288c22.99,0,36.168-9.464,43.175-17.402c8.454-9.579,13.109-22.729,13.109-37.031V245.701H404.264z M114.419,114.117
	c10.183-28.544,24.603-50.881,42.859-66.391C178.936,29.329,206.767,20,240,20s61.064,9.329,82.722,27.727
	c18.256,15.51,32.676,37.847,42.859,66.391c16.762,46.987,18.501,100.207,18.682,131.584H95.737
	C95.918,214.324,97.657,161.105,114.419,114.117z M420.284,265.701v74.787c-18.589,10.471-90.622,47.461-180.284,47.461
	c-89.453,0-161.667-37.01-180.284-47.469v-74.779H420.284z M226.992,407.702c4.292,0.157,8.626,0.247,13.008,0.247
	s8.716-0.09,13.008-0.247v19.042h-26.016V407.702z M384,460H96c-8.512,0-36.284-2.483-36.284-34.434v-62.303
	c25.181,13.051,79.202,36.92,147.276,43.156v22.566c0,9.792,7.967,17.759,17.759,17.759h30.498c9.792,0,17.759-7.967,17.759-17.759
	V406.42c68.074-6.236,122.096-30.105,147.276-43.156v62.303C420.284,457.517,392.512,460,384,460z"/>
<g>
</g>
<g>
</g>
<g>
</g>
<g>
</g>
<g>
</g>
<g>
</g>
<g>
</g>
<g>
</g>
<g>
</g>
<g>
</g>
<g>
</g>
<g>
</g>
<g>
</g>
<g>
</g>
<g>
</g>
</svg>
