<?xml version="1.0" encoding="iso-8859-1"?>
<!-- Generator: Adobe Illustrator 19.0.0, SVG Export Plug-In . SVG Version: 6.00 Build 0)  -->
<svg version="1.1" id="Layer_1" xmlns="http://www.w3.org/2000/svg" xmlns:xlink="http://www.w3.org/1999/xlink" x="0px" y="0px"
	 viewBox="0 0 512 512" style="enable-background:new 0 0 512 512;" xml:space="preserve">
<g>
	<g>
		<g>
			<path d="M68.267,247.467c-4.719,0-8.533,3.823-8.533,8.533s3.814,8.533,8.533,8.533S76.8,260.71,76.8,256
				S72.986,247.467,68.267,247.467z"/>
			<path d="M452.267,196.267h-86.192c-3.964-19.451-21.203-34.133-41.808-34.133H136.533c-4.719,0-8.533,3.823-8.533,8.533v25.6
				H25.6c-14.114,0-25.6,11.486-25.6,25.6v68.267c0,14.114,11.486,25.6,25.6,25.6H128v25.6c0,4.71,3.814,8.533,8.533,8.533h187.733
				c20.605,0,37.844-14.682,41.808-34.133h86.192c32.93,0,59.733-26.795,59.733-59.733S485.197,196.267,452.267,196.267z
				 M25.6,298.667c-4.71,0-8.533-3.831-8.533-8.533v-68.267c0-4.702,3.823-8.533,8.533-8.533H128v85.333H25.6z M324.267,332.8
				h-179.2v-25.6V204.8v-25.6h179.2c11.128,0,20.617,7.134,24.141,17.067H187.733c-4.719,0-8.533,3.823-8.533,8.533v42.667h-8.533
				c-4.719,0-8.533,3.823-8.533,8.533s3.814,8.533,8.533,8.533h8.533V307.2c0,4.71,3.814,8.533,8.533,8.533h160.674
				C344.883,325.666,335.394,332.8,324.267,332.8z M452.267,298.667H358.4H196.267v-34.133H281.6c4.719,0,8.533-3.823,8.533-8.533
				s-3.814-8.533-8.533-8.533h-85.333v-34.133H358.4h93.867c23.526,0,42.667,19.14,42.667,42.667S475.793,298.667,452.267,298.667z"
				/>
		</g>
	</g>
</g>
<g>
</g>
<g>
</g>
<g>
</g>
<g>
</g>
<g>
</g>
<g>
</g>
<g>
</g>
<g>
</g>
<g>
</g>
<g>
</g>
<g>
</g>
<g>
</g>
<g>
</g>
<g>
</g>
<g>
</g>
</svg>
