<?xml version="1.0" encoding="iso-8859-1"?>
<!-- Generator: Adobe Illustrator 19.0.0, SVG Export Plug-In . SVG Version: 6.00 Build 0)  -->
<svg version="1.1" id="Layer_1" xmlns="http://www.w3.org/2000/svg" xmlns:xlink="http://www.w3.org/1999/xlink" x="0px" y="0px"
	 viewBox="0 0 512 512" style="enable-background:new 0 0 512 512;" xml:space="preserve">
<g>
	<g>
		<g>
			<path d="M85.333,247.467c-4.719,0-8.533,3.823-8.533,8.533c0,4.71,3.814,8.533,8.533,8.533s8.533-3.823,8.533-8.533
				C93.867,251.29,90.052,247.467,85.333,247.467z"/>
			<path d="M486.4,204.8h-42.668v-17.067c0-4.71-3.814-8.533-8.533-8.533h-51.2c-4.719,0-8.533,3.823-8.533,8.533V204.8h-25.6
				v-8.533c0-4.71-3.814-8.533-8.533-8.533H153.599c-4.719,0-8.533,3.823-8.533,8.533v8.533H25.6C11.486,204.8,0,216.286,0,230.4
				v51.2c0,14.114,11.486,25.6,25.6,25.6h119.466v8.533c0,4.71,3.814,8.533,8.533,8.533h187.733c4.719,0,8.533-3.823,8.533-8.533
				V307.2h25.6v17.067c0,4.71,3.814,8.533,8.533,8.533h51.2c4.719,0,8.533-3.823,8.533-8.533V307.2H486.4
				c14.114,0,25.6-11.486,25.6-25.6v-51.2C512,216.286,500.514,204.8,486.4,204.8z M25.6,290.133c-4.71,0-8.533-3.831-8.533-8.533
				v-51.2c0-4.702,3.823-8.533,8.533-8.533h119.466v68.267H25.6z M332.799,307.2H162.133v-8.516c0-0.006,0.001-0.011,0.001-0.017
				v-85.333c0-0.006-0.001-0.011-0.001-0.017V204.8h170.667v8.533v85.333V307.2z M349.866,290.133v-68.267h25.6v68.267H349.866z
				 M426.666,315.733h-34.133v-17.067v-85.333v-17.067h34.133V315.733z M494.933,281.6c0,4.702-3.823,8.533-8.533,8.533h-42.667
				v-68.267H486.4c4.71,0,8.533,3.831,8.533,8.533V281.6z"/>
			<path d="M307.2,221.867H187.733c-4.719,0-8.533,3.823-8.533,8.533c0,4.71,3.814,8.533,8.533,8.533H307.2
				c4.719,0,8.533-3.823,8.533-8.533C315.733,225.69,311.919,221.867,307.2,221.867z"/>
			<path d="M307.2,273.067H187.733c-4.719,0-8.533,3.823-8.533,8.533c0,4.71,3.814,8.533,8.533,8.533H307.2
				c4.719,0,8.533-3.823,8.533-8.533C315.733,276.89,311.919,273.067,307.2,273.067z"/>
		</g>
	</g>
</g>
<g>
</g>
<g>
</g>
<g>
</g>
<g>
</g>
<g>
</g>
<g>
</g>
<g>
</g>
<g>
</g>
<g>
</g>
<g>
</g>
<g>
</g>
<g>
</g>
<g>
</g>
<g>
</g>
<g>
</g>
</svg>
