<?xml version="1.0" encoding="iso-8859-1"?>
<!-- Generator: Adobe Illustrator 19.0.0, SVG Export Plug-In . SVG Version: 6.00 Build 0)  -->
<svg version="1.1" id="Layer_1" xmlns="http://www.w3.org/2000/svg" xmlns:xlink="http://www.w3.org/1999/xlink" x="0px" y="0px"
	 viewBox="0 0 512 512" style="enable-background:new 0 0 512 512;" xml:space="preserve">
<g>
	<g>
		<path d="M356.373,128H166.827c-6.507,0-17.493,3.093-17.493,24.107V360c0,20.907,10.987,24.107,17.493,24.107h189.547
			c11.307,0,16.96-8.107,16.96-24.107V152.107C373.333,136.107,367.573,128,356.373,128z M352,152.107v207.787
			c0,0.64,0,1.707,0,2.773H170.773c0-0.747-0.107-1.6-0.107-2.773V152.107c0-1.067,0-2.027,0.107-2.773H352
			C352,150.4,352,151.467,352,152.107z"/>
	</g>
</g>
<g>
	<g>
		<path d="M309.333,234.667C297.6,234.667,288,244.267,288,256c0,11.733,9.6,21.333,21.333,21.333
			c11.733,0,21.333-9.6,21.333-21.333C330.666,244.267,321.066,234.667,309.333,234.667z"/>
	</g>
</g>
<g>
	<g>
		<path d="M480,234.667c-11.733,0-21.333,9.6-21.333,21.333c0,11.733,9.6,21.333,21.333,21.333c11.733,0,21.333-9.6,21.333-21.333
			C501.333,244.267,491.733,234.667,480,234.667z"/>
	</g>
</g>
<g>
	<g>
		<path d="M512,149.333V128h-76.053c-6.4-29.973-35.093-53.333-68.48-53.333h-211.84c-34.133,0-60.587,22.293-65.6,53.333H32.96
			C15.04,128,0,143.787,0,162.453V349.44C0,368.213,15.04,384,32.96,384h57.067c5.013,31.04,31.467,53.333,65.6,53.333h211.84
			c37.227,0,68.693-29.12,69.76-64H512V352h-74.667V149.333H512z M416,371.52c0,23.68-22.613,44.48-48.427,44.48H155.947
			c-26.133,0-45.013-17.92-45.013-42.667v-10.667H33.067c-5.973,0-11.733-6.4-11.733-13.12V162.453c0-6.72,5.653-13.12,11.733-13.12
			h77.867v-10.667C110.933,113.92,129.92,96,155.947,96h211.627C393.387,96,416,116.8,416,140.48V371.52z"/>
	</g>
</g>
<g>
	<g>
		<path d="M213.333,234.667C201.6,234.667,192,244.267,192,256c0,11.733,9.6,21.333,21.333,21.333s21.333-9.6,21.333-21.333
			C234.666,244.267,225.066,234.667,213.333,234.667z"/>
	</g>
</g>
<g>
</g>
<g>
</g>
<g>
</g>
<g>
</g>
<g>
</g>
<g>
</g>
<g>
</g>
<g>
</g>
<g>
</g>
<g>
</g>
<g>
</g>
<g>
</g>
<g>
</g>
<g>
</g>
<g>
</g>
</svg>
