<?xml version="1.0" encoding="iso-8859-1"?>
<!-- Generator: Adobe Illustrator 18.0.0, SVG Export Plug-In . SVG Version: 6.00 Build 0)  -->
<!DOCTYPE svg PUBLIC "-//W3C//DTD SVG 1.1//EN" "http://www.w3.org/Graphics/SVG/1.1/DTD/svg11.dtd">
<svg version="1.1" id="Capa_1" xmlns="http://www.w3.org/2000/svg" xmlns:xlink="http://www.w3.org/1999/xlink" x="0px" y="0px"
	 viewBox="0 0 280.599 280.599" style="enable-background:new 0 0 280.599 280.599;" xml:space="preserve">
<path d="M194.085,190.599c-34.614,0.05-62.929-29.077-62.929-63.69V24.906C131.156,11.173,120.004,0,106.297,0
	c-1.77,0-3.553,0.192-5.301,0.57L17,18.731c-4.114,0.889-6.939,4.681-6.614,8.877L23.23,193.829l-10.699,65.672
	c-1.023,6.274,1.287,12.671,6.28,16.871c3.353,2.82,7.673,4.227,12.054,4.227h225.414c7.657,0,13.955-6.266,13.959-13.923
	C270.258,224.693,236.077,190.538,194.085,190.599z M103.744,13.276c0.846-0.183,1.705-0.276,2.553-0.276
	c6.539,0,11.859,5.341,11.859,11.906V50.49H87.949c-3.59,0-6.5,2.91-6.5,6.5s2.91,6.5,6.5,6.5h30.207v18.333H87.949
	c-3.59,0-6.5,2.91-6.5,6.5s2.91,6.5,6.5,6.5h30.207v17.667H87.949c-3.59,0-6.5,2.91-6.5,6.5s2.91,6.5,6.5,6.5h30.207v2.067
	c0,5.214,0.529,10.306,1.534,15.227l-27.499,4.115c-3.551,0.531-5.998,3.84-5.467,7.39c0.482,3.225,3.256,5.539,6.421,5.539
	c0.319,0,0.644-0.024,0.97-0.073l29.331-4.389c1.904,4.827,4.284,9.414,7.09,13.702l-22.305,8.767
	c-3.341,1.313-4.984,5.086-3.672,8.427c1.007,2.561,3.457,4.124,6.052,4.124c0.791,0,1.596-0.146,2.376-0.453l25.967-10.207
	c3.114,3.295,6.51,6.32,10.164,9.02l-13.357,14.632c-2.42,2.651-2.232,6.763,0.418,9.183c1.247,1.138,2.816,1.7,4.381,1.7
	c1.763,0,3.521-0.713,4.803-2.118l15.053-16.489c4.004,1.995,8.208,3.641,12.572,4.911l-5.325,12.903
	c-1.369,3.318,0.211,7.119,3.529,8.488c0.811,0.335,1.65,0.493,2.477,0.493c2.554,0,4.977-1.515,6.012-4.021
	c0,0,6.229-15.125,6.281-15.284c2.708,0.293,5.454,0.454,8.238,0.454c1.318,0,2.624,0.054,3.923,0.134l-0.147,16.068
	c-0.032,3.59,2.851,6.526,6.44,6.559c0.021,0,0.04,0,0.061,0c3.563,0,6.466-2.871,6.499-6.44l0.128-14.001
	c18.039,5.029,32.835,17.89,40.484,34.68H28.781l7.531-46.218L23.656,30.592L103.744,13.276z M256.279,267.599H30.469
	c-2.082,0-3.363-1.142-3.942-1.823c-0.579-0.681-1.5-2.13-1.166-4.185l1.302-7.993h229.21c0.889,4.21,1.365,8.57,1.365,13.041
	C257.238,267.168,256.807,267.599,256.279,267.599z"/>
<g>
</g>
<g>
</g>
<g>
</g>
<g>
</g>
<g>
</g>
<g>
</g>
<g>
</g>
<g>
</g>
<g>
</g>
<g>
</g>
<g>
</g>
<g>
</g>
<g>
</g>
<g>
</g>
<g>
</g>
</svg>
