<?xml version="1.0" encoding="iso-8859-1"?>
<!-- Generator: Adobe Illustrator 19.0.0, SVG Export Plug-In . SVG Version: 6.00 Build 0)  -->
<svg version="1.1" id="Layer_1" xmlns="http://www.w3.org/2000/svg" xmlns:xlink="http://www.w3.org/1999/xlink" x="0px" y="0px"
	 viewBox="0 0 512 512" style="enable-background:new 0 0 512 512;" xml:space="preserve">
<g>
	<g>
		<path d="M511.661,342.441c-1.243-50.65-42.527-91.475-93.132-91.475c-11.721,0-23.364-0.746-34.873-2.212
			c-0.242-0.04-0.484-0.071-0.732-0.091c-16.294-2.119-32.314-5.698-47.902-10.672c-0.441-0.185-0.894-0.325-1.355-0.431
			c-14.828-4.817-29.254-10.914-43.147-18.234c-0.176-0.101-0.353-0.196-0.533-0.283c-8.257-4.373-16.328-9.172-24.174-14.406
			c-3.834-2.558-9.019-1.524-11.578,2.311c-2.559,3.834-1.525,9.019,2.311,11.577c5.276,3.519,10.651,6.847,16.106,10.001
			l-25.04,25.226c-3.248,3.271-3.229,8.557,0.043,11.805c1.628,1.616,3.754,2.423,5.881,2.423c2.146,0,4.293-0.823,5.925-2.466
			l28.512-28.722c9.307,4.667,18.83,8.819,28.535,12.448l-26.758,26.955c-3.248,3.271-3.228,8.557,0.043,11.805
			c1.628,1.616,3.755,2.423,5.881,2.423c2.147,0,4.292-0.823,5.925-2.466l32.515-32.755c13.024,3.941,26.322,6.957,39.811,9.037
			v71.622c0,0.195,0.016,0.385,0.029,0.577h-96.908l-45.561-45.897c-1.567-1.578-3.7-2.466-5.925-2.466h-92.405l100.443-101.187
			c14.966-15.076,14.966-39.608,0-54.685c-7.27-7.324-16.941-11.356-27.229-11.356c-8.595,0-16.752,2.824-23.445,8.021
			c-18.727-18.44-45.833-25.071-70.901-17.294l-74.498,23.11C15.082,141.643,0,162.201,0,185.837v158.948v50.498
			c0,4.61,3.738,8.348,8.348,8.348h495.304c4.611,0,8.348-3.738,8.348-8.348v-50.498C512,343.971,511.878,343.185,511.661,342.441z
			 M390.624,335.861v-69.535c9.238,0.883,18.548,1.336,27.905,1.336c39.382,0,71.897,30.162,76.039,68.775H390.594
			C390.608,336.245,390.624,336.055,390.624,335.861z M222.087,304.768l31.436,31.669H85.149l31.437-31.669H222.087z
			 M16.696,185.836c0-16.277,10.36-30.427,25.779-35.211l74.498-23.11c19.041-5.908,39.631-0.934,53.953,12.965L16.696,295.85
			V185.836z M16.696,319.549l171.918-173.191c0.001-0.001,0.002-0.002,0.003-0.003c0.001-0.001,0.002-0.002,0.003-0.004l2.372-2.39
			c4.112-4.141,9.573-6.422,15.38-6.422c5.806,0,11.268,2.281,15.38,6.423c8.528,8.592,8.528,22.57,0,31.162L61.624,336.436H16.696
			V319.549z M102.861,386.933H16.696v-33.801h46.48c0.573,0.121,1.155,0.188,1.739,0.188s1.166-0.067,1.74-0.188h69.596
			l-32.533,32.774C103.396,386.228,103.117,386.576,102.861,386.933z M495.304,386.934H126.22l33.554-33.802h335.53V386.934z"/>
	</g>
</g>
<g>
</g>
<g>
</g>
<g>
</g>
<g>
</g>
<g>
</g>
<g>
</g>
<g>
</g>
<g>
</g>
<g>
</g>
<g>
</g>
<g>
</g>
<g>
</g>
<g>
</g>
<g>
</g>
<g>
</g>
</svg>
