<?xml version="1.0" encoding="iso-8859-1"?>
<!-- Generator: Adobe Illustrator 19.0.0, SVG Export Plug-In . SVG Version: 6.00 Build 0)  -->
<svg version="1.1" id="Layer_1" xmlns="http://www.w3.org/2000/svg" xmlns:xlink="http://www.w3.org/1999/xlink" x="0px" y="0px"
	 viewBox="0 0 490 490" style="enable-background:new 0 0 490 490;" xml:space="preserve">
<g>
	<g>
		<g>
			<path d="M286.204,316.681h0.046c0-0.607-0.02-1.209-0.046-1.81V316.681z"/>
			<path d="M218.895,283.587v-47.571h-16.347v119.479c0,11.251-9.156,20.406-20.406,20.406H44.822
				c-11.251,0-20.406-9.155-20.406-20.406V236.016H8.069v119.479c0,20.266,16.487,36.753,36.753,36.753h137.319
				c20.267,0,36.753-16.487,36.753-36.753V316.68v-2.676v-20.338h0.001v20.339v2.676c0-13.818,11.713-25.06,25.531-25.06
				c13.817,0,25.43,11.242,25.43,25.06v-2.907v-21.099v-9.167c-7.052-5.419-15.869-8.652-25.43-8.652
				C234.818,274.856,225.964,278.12,218.895,283.587z"/>
			<path d="M464.331,355.496c0,11.251-9.155,20.406-20.406,20.406H306.61c-11.251,0-20.406-9.155-20.406-20.406v-38.815v-1.81
				v-78.855h-16.347v47.492v9.167v21.099v2.907v38.815c0,20.266,16.487,36.753,36.753,36.753h137.315
				c20.266,0,36.753-16.487,36.753-36.753v-119.48h-16.347V355.496z"/>
			<rect y="211.751" width="490" height="16"/>
			
				<rect x="87.504" y="244.028" transform="matrix(-0.7071 -0.7071 0.7071 -0.7071 -56.5614 598.5206)" width="16.346" height="133.893"/>
			
				<rect x="124.619" y="305.9" transform="matrix(-0.7071 0.7071 -0.7071 -0.7071 462.6855 436.4953)" width="32.646" height="16.346"/>
			
				<rect x="338.019" y="254.659" transform="matrix(-0.7071 -0.7071 0.7071 -0.7071 391.337 726.7897)" width="16.345" height="55.374"/>
			
				<rect x="399.027" y="230.692" transform="matrix(0.7071 0.7071 -0.7071 0.7071 315.6412 -206.5925)" width="16.346" height="94.048"/>
			
				<rect x="319.846" y="333.79" transform="matrix(-0.7071 0.7071 -0.7071 -0.7071 827.2814 341.2534)" width="46.237" height="16.345"/>
			<polygon points="122.164,113.751 163,113.751 163,97.751 115.411,97.751 7.304,205.329 30.275,205.329 			"/>
			<polygon points="460.105,205.329 482.987,205.329 374.968,97.751 327,97.751 327,113.751 368.215,113.751 			"/>
		</g>
	</g>
</g>
<g>
</g>
<g>
</g>
<g>
</g>
<g>
</g>
<g>
</g>
<g>
</g>
<g>
</g>
<g>
</g>
<g>
</g>
<g>
</g>
<g>
</g>
<g>
</g>
<g>
</g>
<g>
</g>
<g>
</g>
</svg>
