<?xml version="1.0" encoding="iso-8859-1"?>
<!-- Generator: Adobe Illustrator 19.0.0, SVG Export Plug-In . SVG Version: 6.00 Build 0)  -->
<svg version="1.1" id="Layer_1" xmlns="http://www.w3.org/2000/svg" xmlns:xlink="http://www.w3.org/1999/xlink" x="0px" y="0px"
	 viewBox="0 0 511.998 511.998" style="enable-background:new 0 0 511.998 511.998;" xml:space="preserve">
<g>
	<g>
		<path d="M505.386,181.131c-13.424-11.619-45.541-31.112-109.817-31.112c-21.416,0-42.961,3.839-61.374,10.736H178.043
			c-18.806-7.09-40.458-10.736-61.612-10.736c-64.277,0-96.394,19.493-109.817,31.112C2.41,184.769,0,190.018,0,195.532v29.576
			c0,3.849,1.138,7.686,3.29,11.097c3.474,5.507,6.351,15.461,9.682,26.985c5.635,19.495,12.648,43.756,27.493,63.42
			c17.72,23.468,43.278,35.367,75.966,35.367c23.488,0,43.963-5.156,60.857-15.326c14.616-8.797,26.621-21.369,35.685-37.366
			c1.322-2.333,2.548-4.701,3.704-7.087l3.32,0.728c1.497,0.328,3.003,0.49,4.5,0.49c3.937,0,7.798-1.122,11.191-3.296
			c4.685-3.001,7.92-7.646,9.111-13.081l5.627-25.673c2.458-11.218-4.667-22.345-15.886-24.804l-2.022-0.444
			c0.255-4.512,0.345-8.578,0.345-12.048c0-6.284-1.032-12.185-2.939-17.704c4.993-1.718,13.816-3.7,26.074-3.7
			c12.307,0,21.152,1.999,26.134,3.721c-1.976,5.649-2.998,11.565-2.998,17.684c0,3.47,0.09,7.536,0.345,12.048l-2.022,0.444
			c-11.219,2.459-18.344,13.585-15.886,24.804l5.627,25.673c1.191,5.435,4.427,10.08,9.111,13.081
			c3.394,2.174,7.254,3.296,11.191,3.296c1.497,0,3.004-0.162,4.5-0.49l3.32-0.728c1.155,2.386,2.382,4.754,3.703,7.087
			c9.065,15.997,21.069,28.569,35.685,37.366c16.894,10.17,37.37,15.326,60.857,15.326c32.688,0,58.245-11.899,75.966-35.367
			c14.844-19.662,21.858-43.925,27.493-63.42c3.33-11.525,6.208-21.479,9.682-26.984c2.152-3.412,3.29-7.249,3.29-11.098v-29.576
			C512,190.018,509.59,184.769,505.386,181.131z M199.158,301.457c-16.784,29.621-44.616,44.64-82.726,44.64
			c-27.827,0-48.531-9.505-63.293-29.057c-13.078-17.322-19.64-40.021-24.912-58.261c-3.667-12.684-6.833-23.639-11.508-31.049
			c-0.383-0.608-0.841-1.555-0.841-2.623v-29.576c0-0.902,0.411-1.774,1.126-2.395C45.41,168.551,96,165.897,116.432,165.897
			c49.427,0,100.554,21.76,100.554,58.173C216.985,241.222,214.67,274.08,199.158,301.457z M231.021,252.047l0.122,0.026
			c2.666,0.584,4.358,3.228,3.774,5.893l-5.626,25.673c-0.284,1.292-1.051,2.396-2.165,3.108c-1.113,0.712-2.435,0.952-3.728,0.667
			l-0.562-0.123C227.069,275.14,229.575,262.974,231.021,252.047z M288.604,287.415c-1.29,0.284-2.616,0.047-3.729-0.667
			c-1.114-0.712-1.881-1.817-2.165-3.108l-5.626-25.673c-0.584-2.665,1.109-5.31,3.774-5.893l0.122-0.026
			c1.445,10.928,3.952,23.092,8.186,35.245L288.604,287.415z M289.533,192.172c-9.118-3.684-22.226-5.383-33.534-5.383
			c-11.271,0-24.33,1.688-33.445,5.347c-4.069-5.734-9.21-10.907-15.181-15.502h97.344
			C298.597,181.353,293.511,186.561,289.533,192.172z M496.121,225.108c0,1.068-0.457,2.016-0.841,2.624
			c-4.675,7.409-7.841,18.364-11.508,31.048c-5.272,18.239-11.834,40.94-24.912,58.261c-14.762,19.552-35.466,29.057-63.293,29.057
			c-38.11,0-65.943-15.019-82.726-44.64c-15.511-27.377-17.828-60.235-17.828-77.385c0-36.413,51.126-58.173,100.554-58.173
			c20.433,0,71.022,2.654,99.426,27.24c0.717,0.619,1.126,1.492,1.126,2.393V225.108z"/>
	</g>
</g>
<g>
</g>
<g>
</g>
<g>
</g>
<g>
</g>
<g>
</g>
<g>
</g>
<g>
</g>
<g>
</g>
<g>
</g>
<g>
</g>
<g>
</g>
<g>
</g>
<g>
</g>
<g>
</g>
<g>
</g>
</svg>
