<?xml version="1.0" encoding="iso-8859-1"?>
<!-- Generator: Adobe Illustrator 19.0.0, SVG Export Plug-In . SVG Version: 6.00 Build 0)  -->
<svg version="1.1" id="Layer_1" xmlns="http://www.w3.org/2000/svg" xmlns:xlink="http://www.w3.org/1999/xlink" x="0px" y="0px"
	 viewBox="0 0 512 512" style="enable-background:new 0 0 512 512;" xml:space="preserve">
<g>
	<g>
		<path d="M484.112,325.48C498.022,311.082,512,287.061,512,248.652c0-36.19-14.615-64.9-42.262-83.023
			c-27.825-18.24-60.481-20.962-77.47-20.962c-3.856,0-7.735-0.077-11.841-0.158c-20.534-0.406-42.857-0.846-62.595,8.802H194.17
			c-19.74-9.65-42.065-9.212-62.596-8.802c-4.107,0.081-7.985,0.158-11.841,0.158c-16.99,0-49.645,2.724-77.47,20.962
			C14.615,183.753,0,212.461,0,248.652c0,38.409,13.978,62.429,27.888,76.827l-5.923,5.975c-3.673,3.703-5.45,8.801-4.878,13.985
			c0.572,5.185,3.418,9.772,7.811,12.587l10.745,6.886c2.884,1.848,6.108,2.747,9.302,2.747c4.783-0.001,9.498-2.017,12.886-5.875
			L68.22,349.96c8.256,2.489,15.959,3.554,22.229,3.554c35.296,0,73.274-24.327,100.789-54.904c1.761,1.581,3.799,2.883,6.069,3.816
			l3.576,1.469c2.609,1.073,5.31,1.58,7.97,1.58c8.28,0,16.146-4.919,19.483-13.038l10.171-24.742
			c4.411-10.729-0.729-23.044-11.458-27.454l-0.078-0.033c1.807-5.352,3.135-10.569,4.001-15.629
			c0.156,0.524,0.321,1.038,0.476,1.561c3.295,11.139,7.808,26.395,24.555,26.395s21.26-15.256,24.555-26.395
			c0.155-0.524,0.32-1.039,0.476-1.561c0.866,5.06,2.194,10.277,4.001,15.629l-0.079,0.033
			c-10.728,4.409-15.868,16.726-11.458,27.453l10.171,24.742c3.338,8.12,11.203,13.038,19.483,13.038c2.659,0,5.362-0.508,7.97-1.58
			l3.576-1.469c2.27-0.933,4.308-2.235,6.069-3.816c27.516,30.577,65.493,54.904,100.789,54.904c6.27,0,13.973-1.066,22.229-3.554
			l10.389,11.827c3.39,3.857,8.102,5.874,12.886,5.874c3.192-0.001,6.418-0.898,9.302-2.747l10.744-6.886
			c4.392-2.814,7.238-7.402,7.81-12.587c0.572-5.184-1.207-10.282-4.878-13.985L484.112,325.48z M45.933,351.335
			c-0.444,0.506-1.179,0.611-1.747,0.247l-10.745-6.887c-0.45-0.288-0.583-0.698-0.614-0.991c-0.033-0.292,0.007-0.721,0.383-1.1
			l6.659-6.716c4.188,3.046,8.481,5.635,12.769,7.814L45.933,351.335z M153.629,312.068c-21.657,16.516-44.095,25.611-63.182,25.611
			c-11.273,0-30.05-4.772-45.871-18.22c-19.07-16.212-28.74-40.035-28.74-70.807c0-83.902,86.548-88.151,103.898-88.151
			c4.015,0,8.154-0.082,12.157-0.161c4.289-0.086,8.541-0.17,12.741-0.17c25.255,0,48.506,3.065,65.055,27.473
			c10.41,15.355,8.307,39.39-5.77,65.943C192.526,275.066,174.198,296.382,153.629,312.068z M223.861,261.675l-10.171,24.742
			c-0.529,1.285-1.525,2.288-2.807,2.823c-1.282,0.534-2.695,0.539-3.98,0.011l-3.576-1.469c-0.752-0.309-1.397-0.788-1.914-1.378
			c6.4-8.309,11.975-16.882,16.491-25.401c1.091-2.057,2.118-4.101,3.084-6.131l0.039,0.016
			C223.68,255.978,224.95,259.022,223.861,261.675z M277.055,193.055c-4.88,7.199-8.324,15.214-10.239,23.83
			c-0.5,1.568-0.974,3.168-1.446,4.765c-3.579,12.098-5.418,15.052-9.37,15.052s-5.791-2.954-9.37-15.052
			c-0.472-1.597-0.947-3.198-1.446-4.765c-1.915-8.616-5.359-16.632-10.239-23.829c-3.846-5.672-8.154-10.784-12.806-15.218
			c-2.218-3.185-4.528-6.077-6.923-8.692h81.57c-2.396,2.616-4.707,5.509-6.926,8.695
			C285.207,182.274,280.9,187.384,277.055,193.055z M308.673,287.78l-3.576,1.469c-1.285,0.528-2.698,0.524-3.981-0.011
			c-1.282-0.535-2.278-1.538-2.807-2.823l-10.171-24.742c-1.089-2.653,0.18-5.697,2.833-6.788l0.039-0.016
			c0.966,2.03,1.993,4.074,3.084,6.131c4.516,8.519,10.091,17.092,16.491,25.401C310.071,286.994,309.426,287.472,308.673,287.78z
			 M421.552,337.68c-19.087,0-41.525-9.096-63.182-25.611c-20.568-15.686-38.898-37.003-50.286-58.482
			c-14.077-26.553-16.18-50.588-5.77-65.943c16.55-24.411,39.797-27.473,65.055-27.473c4.198,0,8.454,0.084,12.741,0.17
			c4.003,0.079,8.142,0.162,12.157,0.162c17.35,0,103.898,4.25,103.898,88.151c0,30.772-9.67,54.596-28.741,70.808
			C451.603,332.909,432.826,337.68,421.552,337.68z M479.173,343.704c-0.032,0.294-0.165,0.703-0.614,0.991l-10.745,6.887
			c-0.569,0.364-1.303,0.259-1.747-0.246l-6.706-7.632c4.289-2.18,8.581-4.768,12.769-7.814l6.659,6.716
			C479.166,342.983,479.206,343.411,479.173,343.704z"/>
	</g>
</g>
<g>
</g>
<g>
</g>
<g>
</g>
<g>
</g>
<g>
</g>
<g>
</g>
<g>
</g>
<g>
</g>
<g>
</g>
<g>
</g>
<g>
</g>
<g>
</g>
<g>
</g>
<g>
</g>
<g>
</g>
</svg>
